<svg width="847" height="447" viewBox="0 0 847 447" fill="none" xmlns="http://www.w3.org/2000/svg">
<path d="M89.9977 206.632C89.9977 210.006 89.9977 215.909 89.9977 220.97C89.9977 226.03 89.9977 231.934 89.9977 236.151C79.9044 236.151 69.811 236.151 60.5588 236.151C60.5588 293.502 60.5588 372.781 61.3999 386.275C57.1944 385.432 49.6244 385.432 45.4188 385.432C40.3721 385.432 33.6432 385.432 29.4377 386.275C30.2788 372.781 30.2788 293.502 30.2788 236.151C21.0265 236.151 10.9332 236.151 0.839844 236.151C0.839844 231.934 0.839844 226.03 0.839844 220.97C0.839844 215.909 0.839844 210.006 0.839844 206.632H89.9977Z" fill="#231F20"/>
<path d="M167.38 386.275C167.38 360.13 168.221 327.238 168.221 283.381C168.221 269.043 164.857 263.14 153.922 263.14C142.988 263.14 134.577 270.73 134.577 290.128C134.577 351.696 134.577 368.564 134.577 386.275H104.297C105.138 364.347 105.138 343.262 105.138 307.84C105.138 266.513 105.138 226.03 104.297 200.728H135.418C135.418 214.223 134.577 224.343 134.577 235.307C134.577 242.055 134.577 247.958 133.736 254.706H134.577C140.465 241.211 150.558 235.307 166.539 235.307C185.044 235.307 197.66 247.115 197.66 274.104C197.66 301.092 196.819 315.43 196.819 332.298C196.819 352.54 196.819 368.564 197.66 385.432H167.38V386.275Z" fill="#231F20"/>
<path d="M262.427 388.805C232.988 388.805 215.324 370.251 215.324 313.743C215.324 255.549 232.988 235.307 263.268 235.307C294.389 235.307 305.323 255.549 305.323 290.971C305.323 302.779 304.482 316.273 304.482 322.177C296.071 322.177 282.613 321.334 269.997 321.334C259.903 321.334 250.651 321.334 243.922 321.334C244.763 355.913 250.651 363.503 263.268 363.503C275.043 363.503 278.408 356.756 278.408 338.202C281.772 338.202 286.819 339.045 291.865 339.045C296.912 339.045 301.118 339.045 305.323 338.202C304.482 372.781 296.071 388.805 262.427 388.805ZM243.081 303.622C254.015 304.466 266.632 303.622 276.725 303.622C276.725 300.249 277.567 296.032 277.567 290.128C277.567 267.356 273.361 260.609 261.585 260.609C250.651 259.766 244.763 267.356 243.081 303.622Z" fill="#231F20"/>
<path d="M471.021 206.632C471.021 210.006 471.021 215.909 471.021 220.97C471.021 226.03 471.021 231.934 471.021 236.151C460.928 236.151 450.834 236.151 441.582 236.151C441.582 293.502 441.582 372.781 442.423 386.275C438.218 385.432 430.648 385.432 426.442 385.432C421.396 385.432 414.667 385.432 410.461 386.275C411.302 372.781 411.302 293.502 411.302 236.151C402.05 236.151 391.957 236.151 381.863 236.151C381.863 231.934 381.863 226.03 381.863 220.97C381.863 215.909 381.863 210.006 381.863 206.632H471.021Z" fill="#231F20"/>
<path d="M508.871 263.983C513.077 243.741 522.329 236.151 535.787 236.994C539.993 236.994 543.357 237.837 547.562 238.681C546.721 246.271 545.88 260.609 545.039 269.887C541.675 269.043 537.469 268.2 534.105 268.2C518.965 268.2 513.918 274.947 513.918 301.936C513.918 328.924 513.918 364.347 514.759 386.275H482.797C482.797 365.19 482.797 342.419 482.797 310.37C482.797 279.164 482.797 258.079 482.797 237.837H508.03C508.03 245.428 507.189 253.862 507.189 263.139L508.871 263.983Z" fill="#231F20"/>
<path d="M653.544 237.838C652.703 258.923 652.703 278.321 652.703 311.213C652.703 343.262 652.703 366.877 653.544 386.275H623.264C623.264 379.528 623.264 374.468 624.105 369.408H623.264C618.218 382.902 607.283 388.806 592.143 388.806C571.957 388.806 560.181 376.998 560.181 350.009C560.181 322.177 560.181 308.683 560.181 291.815C560.181 271.574 560.181 255.549 559.34 238.681H590.461C589.62 264.826 589.62 299.406 589.62 344.106C589.62 357.6 593.825 363.504 603.919 363.504C614.853 363.504 623.264 355.913 623.264 337.359C623.264 274.947 623.264 257.236 622.423 239.525H653.544V237.838Z" fill="#231F20"/>
<path d="M709.898 238.681C718.309 238.681 727.561 238.681 735.973 238.681C735.131 247.115 735.131 258.079 735.131 267.357C728.403 267.357 719.15 266.513 709.057 266.513C709.057 290.128 708.216 317.117 708.216 346.636C708.216 356.757 711.58 360.13 719.991 360.13C725.038 360.13 730.085 359.287 733.449 356.757C734.29 366.034 735.973 377.841 736.814 385.432C729.244 387.962 724.197 388.806 714.945 388.806C688.029 388.806 678.777 372.781 678.777 349.166C678.777 326.394 678.777 296.875 679.618 265.67H668.684C668.684 258.079 668.684 246.272 668.684 238.681H680.459V210.849C684.665 210.849 690.552 210.849 695.599 210.849C700.646 210.849 705.693 210.849 710.739 210.849L709.898 238.681Z" fill="#231F20"/>
<path d="M816.72 386.275C816.72 360.13 817.561 327.238 817.561 283.381C817.561 269.043 814.197 263.14 803.262 263.14C792.328 263.14 783.917 270.73 783.917 290.128C783.917 351.696 783.917 368.564 783.917 386.275H753.637C754.478 364.347 754.478 343.262 754.478 307.84C754.478 266.513 754.478 226.03 753.637 200.728H784.758C784.758 214.223 783.917 224.343 783.917 235.307C783.917 242.055 783.917 247.958 783.076 254.706H783.917C789.805 241.211 799.898 235.307 815.879 235.307C834.384 235.307 847 247.115 847 274.104C847 301.092 846.159 315.43 846.159 332.298C846.159 352.54 846.159 368.564 847 385.432H816.72V386.275Z" fill="#231F20"/>
<path d="M348.22 437.722C353.267 412.421 357.473 387.119 362.519 361.817C354.949 362.66 348.22 363.504 340.65 364.347C349.903 380.372 358.314 397.239 367.566 413.264C370.93 420.011 374.295 426.758 378.5 432.662C381.865 438.566 384.388 444.47 392.799 445.313C398.687 446.156 402.893 441.096 404.575 436.879C407.098 430.975 402.052 423.385 396.164 421.698C389.435 420.011 383.547 423.385 381.024 430.132C385.229 427.602 388.594 424.228 392.799 421.698C395.323 422.541 398.687 424.228 401.21 425.072C401.21 425.072 403.734 428.445 402.893 426.758C402.893 425.915 402.052 425.915 402.052 425.072C401.21 422.541 399.528 420.855 398.687 418.324C395.323 411.577 391.958 405.673 387.753 398.926C379.342 383.745 370.93 367.721 362.519 352.539C357.473 344.106 342.333 344.949 340.65 355.07C335.604 380.372 331.398 405.673 326.351 430.975C325.51 436.879 328.034 444.47 334.763 446.156C339.809 447.843 347.379 444.47 348.22 437.722Z" fill="#231F20"/>
<path d="M185.883 102.894C190.929 100.364 197.658 98.6771 202.705 104.581C210.275 114.702 214.481 151.811 221.209 153.498C227.097 154.341 243.919 129.883 248.966 113.015C253.172 97.8337 254.854 74.2187 259.059 64.9413C263.265 58.1941 278.405 55.6639 284.293 65.7847C285.134 109.641 263.265 156.871 238.873 173.739C227.938 180.487 213.639 185.547 204.387 177.113C200.182 173.739 191.771 152.655 190.088 151.811C188.406 150.968 176.63 170.366 171.584 173.739C160.649 181.33 141.304 183.017 133.734 170.366C127.846 161.088 126.164 143.377 124.482 129.039C121.958 118.919 118.594 75.9054 125.323 67.4715C130.369 60.7243 144.668 62.4111 148.033 69.1583C151.397 75.062 147.192 102.051 148.033 111.328C148.874 124.822 149.715 145.064 153.92 150.968C169.06 146.751 177.472 108.798 185.883 102.894Z" fill="#231F20"/>
<path d="M365.04 60.7244C376.816 63.2546 381.022 81.8093 381.863 100.364C382.704 113.015 381.022 133.256 380.18 149.281C380.18 166.149 380.18 183.86 373.452 189.764C367.564 195.668 355.788 193.138 353.265 188.077C350.741 183.017 353.265 160.245 354.106 131.57C354.106 124.823 355.788 95.3037 351.583 91.0867C343.171 91.0867 337.284 95.3037 333.078 99.5206C328.031 103.738 324.667 109.641 322.144 116.389C317.938 134.943 317.938 147.594 314.574 167.836C312.891 181.33 312.891 193.981 296.069 192.294C284.294 190.607 284.294 176.27 286.817 161.089C290.181 135.787 293.546 123.979 297.751 96.9904C300.275 77.5923 301.957 66.6282 304.48 49.7603C306.163 32.8923 307.004 8.43384 318.779 6.74705C324.667 5.90365 332.237 8.43384 334.76 12.6508C339.807 21.0848 333.919 32.8923 333.078 40.4829C331.396 51.447 327.19 70.8452 329.714 70.8452C343.171 70.0018 349.9 56.5074 365.04 60.7244Z" fill="#231F20"/>
<path d="M508.029 113.858C510.552 134.943 497.935 154.341 480.272 166.992C470.179 173.74 458.403 177.957 442.422 175.426C428.964 173.74 413.824 165.306 406.254 156.872C392.796 137.474 396.161 107.111 407.936 90.2434C413.824 80.966 415.506 78.4358 425.6 70.0019C432.329 65.7849 436.534 62.4113 444.945 61.5679C483.636 55.6641 508.029 80.1226 508.029 113.858ZM457.562 149.281C465.973 146.751 476.908 137.474 480.272 125.666C485.319 103.738 470.179 83.4962 451.674 86.8698C437.375 89.4 423.917 113.015 426.441 129.883C428.123 142.534 439.899 153.498 457.562 149.281Z" fill="#231F20"/>
<path d="M564.382 38.7962C561.017 79.2792 555.971 113.015 551.765 151.811C550.924 159.402 547.559 180.487 545.877 185.547C542.513 193.981 530.737 201.572 523.167 196.511C514.756 191.451 523.167 156.872 524.849 145.064C529.055 113.015 533.261 89.4 535.784 58.1943C538.307 36.266 536.625 6.74714 555.129 1.68677C572.793 -4.21701 566.064 22.7717 564.382 38.7962Z" fill="#231F20"/>
<path d="M632.515 166.993C650.178 171.21 657.748 156.872 667.842 163.619C673.729 169.523 672.047 177.957 667.842 181.33C654.384 190.608 628.309 193.981 614.851 186.391C593.824 177.113 587.095 169.523 580.366 147.594C576.16 124.823 578.684 107.955 587.936 96.9907C594.665 85.1831 606.44 75.0624 617.375 72.5322C643.449 64.0982 664.477 72.5322 675.412 98.6774C677.094 102.051 680.458 112.172 680.458 117.232C680.458 123.979 675.412 133.257 668.683 135.787C656.907 140.004 651.019 143.377 638.403 146.751C629.992 149.281 619.057 151.811 613.169 153.498C614.01 161.932 620.739 164.462 632.515 166.993ZM606.44 127.353C611.487 128.196 627.468 123.136 636.72 121.449C642.608 120.606 650.178 115.545 651.86 111.328C645.132 91.0869 629.992 89.4001 613.169 102.894C606.44 108.798 604.758 122.293 606.44 127.353Z" fill="#231F20"/>
</svg>
