<?xml version="1.0" encoding="UTF-8"?>
<svg id="Ebene_1" data-name="Ebene 1" xmlns="http://www.w3.org/2000/svg" version="1.1" viewBox="0 0 30 36.48">
  <defs>
    <style>
      .cls-1 {
        fill: #333f48;
        stroke-width: 0px;
      }
    </style>
  </defs>
  <path class="cls-1" d="M27.38,31.77c-.86-.49-1.68-1-2.44-1.53-.8-.55-1.54-1.11-2.23-1.69-.71-.6-1.38-1.22-1.99-1.84-.63-.64-1.21-1.3-1.74-1.96-.54-.68-1.03-1.37-1.48-2.06-.45-.7-.85-1.41-1.22-2.13-.37-.72-.69-1.45-.97-2.17-.28-.73-.53-1.46-.73-2.18-.21-.73-.38-1.44-.52-2.15-.14-.71-.25-1.41-.33-2.1-.08-.68-.13-1.34-.17-1.99-.03-.62-.04-1.22-.03-1.8,0-.51.02-.99.05-1.46.02-.3.04-.6.06-.89,0-.03,0-.05,0-.08.21-2.37.64-4.2.89-5.11.09-.32.15-.52.18-.61,0,0,0-.01,0-.02t0,0c-.38.17-.76.36-1.13.55-.37.19-.75.4-1.12.61-.37.21-.73.44-1.09.67-.36.24-.72.48-1.06.73-.22.16-.43.32-.64.48-.02.01-.04.03-.06.05-.1.08-.21.16-.31.25-.13.1-.25.21-.38.31-.15.12-.29.25-.43.37.54.62,1.22,1.33,1.22,1.33-.4.45-1.45,1.94-1.45,1.94.72.54,1.45,1,1.45,1-.26.64-.73,2.26-.73,2.26-.67-.36-1.3-.78-1.88-1.26-.67-.55-1.28-1.17-1.83-1.85-.09.12-.19.24-.27.36-.25.33-.48.66-.71,1-.09.13-.17.26-.26.39.65.75,1.38,1.43,2.17,2.03-.14.32-.26.65-.39.98-.13.37-.26.74-.38,1.11.88.61,1.81,1.14,2.81,1.57-.01.14-.02.28-.03.42-.03.4-.05.8-.05,1.2,0,.23,0,.47,0,.7-1.17-.44-2.28-1.01-3.31-1.66-1.06-.67-2.04-1.45-2.93-2.31-.13.31-.26.63-.37.95-.14.38-.27.75-.39,1.14-.02.06-.04.12-.05.17,1.03.91,2.15,1.71,3.35,2.4,0,.05-.01.1-.02.15-.04.4-.08.8-.11,1.2-.03.37-.04.74-.05,1.1,1.39.71,2.86,1.29,4.41,1.71.03.16.07.31.1.47.09.4.19.79.3,1.19.08.27.16.55.25.82-1.74-.38-3.41-.94-4.99-1.66-1.5-.68-2.92-1.5-4.23-2.45-.03.26-.05.52-.07.78-.03.4-.04.8-.05,1.2,0,.23,0,.45,0,.67,1.47.94,3.04,1.75,4.7,2.4.06.33.13.65.2.98.09.4.19.79.31,1.19.04.16.09.32.14.48,1.4.47,2.85.83,4.35,1.09.62.11,1.23.19,1.84.26.21.37.43.73.66,1.09.24.36.48.72.73,1.06.07.09.13.18.2.27-1.42-.07-2.85-.24-4.28-.51-.85-.16-1.69-.36-2.52-.58-1.97-.54-3.86-1.26-5.64-2.13.07.31.15.62.24.93.11.39.23.79.36,1.18.09.27.18.53.28.79,1.94.81,3.98,1.45,6.11,1.89.2.34.41.68.62,1.02.24.36.48.72.73,1.06.14.19.28.38.42.57,2.7.4,5.38.49,8.01.29,4.39-.33,8.63-1.45,12.53-3.24-.92-.44-1.79-.89-2.62-1.36"/>
</svg>