<?xml version="1.0" encoding="UTF-8" standalone="no"?>
<svg
   xmlns:dc="http://purl.org/dc/elements/1.1/"
   xmlns:cc="http://creativecommons.org/ns#"
   xmlns:rdf="http://www.w3.org/1999/02/22-rdf-syntax-ns#"
   xmlns:svg="http://www.w3.org/2000/svg"
   xmlns="http://www.w3.org/2000/svg"
   xmlns:sodipodi="http://sodipodi.sourceforge.net/DTD/sodipodi-0.dtd"
   xmlns:inkscape="http://www.inkscape.org/namespaces/inkscape"
   width="400"
   height="400"
   viewBox="0 0 1040 1040"
   fill="none"
   version="1.1"
   id="svg8"
   sodipodi:docname="2r1uyte9w4vluoa1jav.svg"
   inkscape:version="1.0.1 (3bc2e813f5, 2020-09-07)">
  <metadata
     id="metadata14">
    <rdf:RDF>
      <cc:Work
         rdf:about="">
        <dc:format>image/svg+xml</dc:format>
        <dc:type
           rdf:resource="http://purl.org/dc/dcmitype/StillImage" />
        <dc:title></dc:title>
      </cc:Work>
    </rdf:RDF>
  </metadata>
  <defs
     id="defs12" />
  <sodipodi:namedview
     pagecolor="#ffffff"
     bordercolor="#666666"
     borderopacity="1"
     objecttolerance="10"
     gridtolerance="10"
     guidetolerance="10"
     inkscape:pageopacity="0"
     inkscape:pageshadow="2"
     inkscape:window-width="1920"
     inkscape:window-height="1001"
     id="namedview10"
     showgrid="false"
     inkscape:zoom="1.4672466"
     inkscape:cx="200"
     inkscape:cy="172.73805"
     inkscape:window-x="-9"
     inkscape:window-y="-9"
     inkscape:window-maximized="1"
     inkscape:current-layer="svg8" />
  <path
     d="m 1007.9012,337.41768 c -0.7624,-11.43522 -5.3365,-22.1081 -12.95988,-31.25627 C 975.12025,283.29097 930.90406,233.73835 869.15388,171.98816 807.40369,110.23798 757.85411,66.021797 734.98368,46.200749 726.59785,38.57727 715.16263,34.003205 703.72741,33.240857 674.75819,30.953813 609.95861,27.14205 520.00155,27.14205 c -89.95706,0 -154.75664,3.811763 -183.72586,6.098807 -11.43522,0.762348 -22.1081,5.336413 -31.25627,12.959892 C 282.14898,66.021797 232.59636,110.23798 170.84617,171.98816 106.80894,236.02539 64.117381,284.05332 45.058681,306.16141 c -7.623479,8.38583 -12.197567,19.82105 -12.959915,31.25627 -2.287014,28.96922 -6.098776,93.7688 -6.098776,183.72586 0,86.90767 3.811762,153.99429 6.098776,183.72586 0.762348,11.43522 5.336436,22.1081 12.959915,31.25627 19.0587,22.10809 61.750259,70.89836 125.787489,134.17325 61.75019,61.75018 111.30281,105.96637 134.17325,125.78742 8.38583,7.62346 19.82105,9.91046 31.25627,10.67286 28.96922,2.287 93.7688,6.0987 183.72586,6.0987 89.95706,0 154.75664,-3.8117 183.72586,-6.0987 11.43522,-0.7624 22.10809,-3.0494 31.25627,-10.67286 22.87043,-19.82105 72.42001,-64.03724 134.1702,-125.78742 64.03722,-64.03723 106.72871,-112.06516 125.78744,-134.17325 7.62338,-9.14817 12.19748,-19.82105 12.95988,-31.25627 2.2871,-29.73157 6.0988,-96.81819 6.0988,-183.72586 0,-89.95706 -3.8117,-153.99429 -6.0988,-183.72586 z m -38.87974,354.49181 c -0.76235,9.91052 -4.57409,19.05869 -10.67287,26.68218 -17.53401,19.82105 -56.41375,64.79957 -116.63925,124.26271 -57.93539,57.93845 -104.43862,99.10524 -125.02202,116.63925 -7.62347,6.09878 -16.77164,9.91052 -26.68217,10.67287 -26.68218,2.28705 -86.14532,6.09879 -170.76595,6.09879 -84.62063,0 -144.08376,-3.81174 -170.76594,-6.09879 -9.91053,-0.76235 -19.05871,-4.57409 -26.68218,-10.67287 C 301.20768,941.95962 254.70446,900.79283 196.76601,842.85438 137.30287,783.39124 97.660769,738.41272 80.126765,718.59167 74.027981,710.96818 70.216241,701.82001 69.453894,691.90949 67.166849,665.22731 63.35511,602.71477 63.35511,521.14354 c 0,-84.62062 3.811739,-144.08377 6.098784,-170.76595 0.762347,-9.91052 4.574087,-19.05869 10.672871,-25.91983 C 96.89842,304.63672 136.54051,259.65818 196.76601,199.4327 254.70446,141.49425 301.20768,100.32746 321.79108,82.793453 c 7.62347,-6.098784 16.77165,-9.9106 26.68218,-10.672949 26.68218,-2.287044 86.14531,-6.098784 170.76594,-6.098784 84.62063,0 144.08377,3.81174 170.76595,6.098784 9.91053,0.762349 19.0587,4.574165 26.68217,10.672949 20.5834,17.534007 67.08663,58.700797 125.02202,116.639247 57.93845,57.93844 99.10524,104.44166 116.63925,125.02506 6.09878,7.62348 9.91052,16.77166 10.67287,26.68219 2.28704,26.68217 6.09879,86.14531 6.09879,170.76594 0,80.80888 -3.81175,143.32142 -6.09879,170.0036 z"
     fill="black"
     id="path2"
     style="fill:#cd1316;fill-opacity:1;stroke-width:7.62348" />
  <path
     d="m 914.13241,428.14014 c -0.76235,-32.78097 -3.04177,-61.75019 -4.56647,-68.61132 -1.52469,-2.28705 -5.34405,-6.86113 -6.86876,-9.14818 -28.20687,-32.01861 -57.17609,-63.27488 -95.29349,-101.39228 -75.46864,-74.7101 -115.87308,-110.54045 -125.7836,-117.40159 -7.62349,-0.76235 -21.34575,-2.28704 -58.7008,-3.81174 -29.73158,-1.52469 -67.08662,-2.28704 -70.13601,-2.28704 0,6.86113 -0.76236,501.62496 0,783.69067 0,5.33644 0,6.86113 0,6.86113 0,0 86.90766,0.76236 128.83681,-5.33644 28.96921,-24.39513 83.09592,-75.47244 123.50418,-115.11454 42.69148,-42.68844 79.27657,-82.33053 88.42474,-93.0034 3.81174,-4.57409 12.95991,-13.72226 16.77166,-20.5834 0.76234,-5.33644 0.76997,-9.91052 1.53231,-19.82105 3.0494,-49.55261 3.81174,-138.74733 3.81174,-141.79672 -3.81174,0 -134.17705,0 -137.22644,0 0,2.28705 0,68.61132 0,68.61132 1.52469,0 64.04103,0 66.32808,0 0,1.5247 -1.53231,56.41375 -3.05702,65.56193 -4.57408,6.86113 -12.95228,14.48461 -21.33811,23.63278 -9.91053,10.67288 -23.63279,25.15748 -51.84348,54.12671 -35.06801,36.5927 -90.71941,87.66697 -115.11454,109.77506 0,-3.04939 -0.76235,-636.55751 0,-642.65629 6.09878,5.33642 22.10808,19.82104 25.91983,23.63278 29.73157,28.20687 60.98784,57.1761 86.90766,83.09593 37.35125,38.87974 74.7063,79.28419 76.23099,82.33358 0.76236,3.04939 2.29467,36.59271 2.29467,39.6421 1.5247,0 66.31665,0 69.36605,0 z"
     fill="black"
     id="path4"
     style="fill:#cd1316;fill-opacity:1;stroke-width:7.62348" />
  <path
     d="m 386.5876,912.9904 c 0,-123.50037 0,-271.39283 0,-497.81018 0.76235,-14.48461 0,-93.00646 0,-93.00646 0,0 -0.76234,3.81175 -2.28704,4.5741 -15.24696,40.40444 -33.54331,82.33358 -50.31497,127.3121 -22.10809,57.17611 -42.69149,115.8769 -58.70079,160.09308 l -1.5247,-1.52469 -46.50322,-82.33359 -32.78097,-57.17609 c 0,0 0,68.61131 0,75.47245 0.76235,62.51253 2.28704,112.8275 5.33644,166.95421 0,6.86113 3.04939,45.74087 3.04939,45.74087 0,0 -22.87044,-22.87044 -34.30565,-35.83035 -21.34575,-22.87044 -28.96923,-31.25627 -38.1174,-43.45384 -3.81175,-41.16679 -6.0988,-86.90766 -5.33644,-174.57768 0.76234,-84.62063 4.57408,-140.27203 4.57408,-147.13317 0,-0.76234 -0.76234,-0.76234 2.28705,-4.57408 6.09878,-7.62348 36.59271,-41.92914 44.21618,-48.79027 3.81174,-3.0494 4.57409,-3.81174 4.57409,-3.81174 0,0 3.81174,6.09878 6.09878,9.14817 12.95992,19.05871 36.5927,60.98784 58.7008,98.3429 12.95991,22.87043 14.48461,24.39513 14.48461,24.39513 0,0 17.534,-52.60201 60.22549,-158.56838 32.78096,-80.80889 64.79957,-146.37081 65.56193,-148.65786 2.28703,0 26.68218,-1.52469 52.60201,-2.28704 25.91982,-1.5247 47.26557,-0.76235 49.55262,-0.76235 0,4.57409 0,7.62348 0,7.62348 0,0 0,484.85331 0,773.78015 0,3.04939 0,5.33644 0,9.14818 -1.5247,0 -6.09879,0 -9.91053,0 -38.87974,0.76234 -81.57124,-1.5247 -91.48176,-2.28705 z"
     fill="black"
     id="path6"
     style="fill:#cd1316;fill-opacity:1;stroke-width:7.62348" />
</svg>
